<svg width="318" height="304" viewBox="0 0 318 304" fill="none" xmlns="http://www.w3.org/2000/svg">
<g filter="url(#filter0_d_3_53)">
<path d="M96.146 76.648C109.071 76.648 121.997 78.5693 134.922 82.412C137.367 83.1107 138.59 84.6827 138.59 87.128V123.284C138.59 125.904 137.28 127.214 134.66 127.214H119.988C117.368 127.214 116.145 125.904 116.32 123.284L117.106 105.73C110.119 101.538 102.347 99.442 93.788 99.442C85.2293 99.442 78.33 101.538 73.09 105.73C68.0247 109.747 65.492 115.424 65.492 122.76C65.492 130.096 67.85 136.122 72.566 140.838C77.282 145.379 84.0067 149.309 92.74 152.628C101.473 155.947 107.325 158.217 110.294 159.44C113.263 160.663 117.543 162.933 123.132 166.252C128.896 169.571 133.088 172.889 135.708 176.208C138.503 179.352 141.035 183.631 143.306 189.046C145.751 194.461 146.974 200.487 146.974 207.124C146.974 224.416 141.472 237.953 130.468 247.734C119.639 257.341 104.181 262.144 84.094 262.144C69.2473 262.144 54.5753 259.873 40.078 255.332C37.6327 254.633 36.41 253.061 36.41 250.616V208.958C36.41 206.338 37.72 205.028 40.34 205.028H55.012C57.632 205.028 58.8547 206.338 58.68 208.958L57.632 230.704C59.9027 232.8 63.658 234.809 68.898 236.73C74.3127 238.477 79.8147 239.35 85.404 239.35C107.063 239.35 117.892 230.529 117.892 212.888C117.892 204.329 115.01 197.605 109.246 192.714C103.482 187.649 95.9713 183.631 86.714 180.662C77.6313 177.518 70.732 174.811 66.016 172.54C61.3 170.095 56.4967 166.951 51.606 163.108C41.8247 155.772 36.934 144.506 36.934 129.31C36.934 114.114 42.174 101.538 52.654 91.582C63.134 81.626 77.6313 76.648 96.146 76.648ZM240.717 295.942C206.133 295.942 188.841 280.921 188.841 250.878C188.841 248.258 190.413 246.948 193.557 246.948H208.229C210.325 246.948 211.635 247.297 212.159 247.996C212.857 248.52 213.381 249.83 213.731 251.926C214.429 259.961 216.962 265.637 221.329 268.956C225.695 272.449 232.507 274.196 241.765 274.196C251.022 274.196 258.096 271.925 262.987 267.384C268.052 262.843 270.585 255.07 270.585 244.066C270.585 225.377 261.24 215.595 242.551 214.722C240.629 214.547 237.922 214.46 234.429 214.46H226.831C224.909 214.46 223.599 214.111 222.901 213.412C222.202 212.713 221.853 211.403 221.853 209.482V197.954C221.853 196.033 222.202 194.81 222.901 194.286C223.599 193.587 226.656 193.063 232.071 192.714C237.485 192.365 241.415 192.015 243.861 191.666C259.581 188.697 267.441 179.701 267.441 164.68C267.441 149.484 259.493 141.886 243.599 141.886C227.704 141.886 218.883 149.397 217.137 164.418C216.787 166.339 216.263 167.649 215.565 168.348C214.866 169.047 213.556 169.396 211.635 169.396H197.749C195.827 169.396 194.517 169.047 193.819 168.348C193.12 167.649 192.858 166.339 193.033 164.418C193.731 149.746 198.971 138.655 208.753 131.144C218.709 123.633 231.459 119.878 247.005 119.878C262.55 119.878 274.515 123.459 282.899 130.62C291.457 137.781 295.737 147.999 295.737 161.274C295.737 180.313 284.471 193.937 261.939 202.146C272.244 203.543 281.065 207.823 288.401 214.984C295.737 221.971 299.405 231.752 299.405 244.328C299.405 260.048 294.077 272.537 283.423 281.794C272.768 291.226 258.533 295.942 240.717 295.942Z" fill="#101017"/>
</g>
<g filter="url(#filter1_d_3_53)">
<path d="M83.146 76.648C96.0713 76.648 108.997 78.5693 121.922 82.412C124.367 83.1107 125.59 84.6827 125.59 87.128V123.284C125.59 125.904 124.28 127.214 121.66 127.214H106.988C104.368 127.214 103.145 125.904 103.32 123.284L104.106 105.73C97.1193 101.538 89.3467 99.442 80.788 99.442C72.2293 99.442 65.33 101.538 60.09 105.73C55.0247 109.747 52.492 115.424 52.492 122.76C52.492 130.096 54.85 136.122 59.566 140.838C64.282 145.379 71.0067 149.309 79.74 152.628C88.4733 155.947 94.3247 158.217 97.294 159.44C100.263 160.663 104.543 162.933 110.132 166.252C115.896 169.571 120.088 172.889 122.708 176.208C125.503 179.352 128.035 183.631 130.306 189.046C132.751 194.461 133.974 200.487 133.974 207.124C133.974 224.416 128.472 237.953 117.468 247.734C106.639 257.341 91.1807 262.144 71.094 262.144C56.2473 262.144 41.5753 259.873 27.078 255.332C24.6327 254.633 23.41 253.061 23.41 250.616V208.958C23.41 206.338 24.72 205.028 27.34 205.028H42.012C44.632 205.028 45.8547 206.338 45.68 208.958L44.632 230.704C46.9027 232.8 50.658 234.809 55.898 236.73C61.3127 238.477 66.8147 239.35 72.404 239.35C94.0627 239.35 104.892 230.529 104.892 212.888C104.892 204.329 102.01 197.605 96.246 192.714C90.482 187.649 82.9713 183.631 73.714 180.662C64.6313 177.518 57.732 174.811 53.016 172.54C48.3 170.095 43.4967 166.951 38.606 163.108C28.8247 155.772 23.934 144.506 23.934 129.31C23.934 114.114 29.174 101.538 39.654 91.582C50.134 81.626 64.6313 76.648 83.146 76.648ZM227.717 295.942C193.133 295.942 175.841 280.921 175.841 250.878C175.841 248.258 177.413 246.948 180.557 246.948H195.229C197.325 246.948 198.635 247.297 199.159 247.996C199.857 248.52 200.381 249.83 200.731 251.926C201.429 259.961 203.962 265.637 208.329 268.956C212.695 272.449 219.507 274.196 228.765 274.196C238.022 274.196 245.096 271.925 249.987 267.384C255.052 262.843 257.585 255.07 257.585 244.066C257.585 225.377 248.24 215.595 229.551 214.722C227.629 214.547 224.922 214.46 221.429 214.46H213.831C211.909 214.46 210.599 214.111 209.901 213.412C209.202 212.713 208.853 211.403 208.853 209.482V197.954C208.853 196.033 209.202 194.81 209.901 194.286C210.599 193.587 213.656 193.063 219.071 192.714C224.485 192.365 228.415 192.015 230.861 191.666C246.581 188.697 254.441 179.701 254.441 164.68C254.441 149.484 246.493 141.886 230.599 141.886C214.704 141.886 205.883 149.397 204.137 164.418C203.787 166.339 203.263 167.649 202.565 168.348C201.866 169.047 200.556 169.396 198.635 169.396H184.749C182.827 169.396 181.517 169.047 180.819 168.348C180.12 167.649 179.858 166.339 180.033 164.418C180.731 149.746 185.971 138.655 195.753 131.144C205.709 123.633 218.459 119.878 234.005 119.878C249.55 119.878 261.515 123.459 269.899 130.62C278.457 137.781 282.737 147.999 282.737 161.274C282.737 180.313 271.471 193.937 248.939 202.146C259.244 203.543 268.065 207.823 275.401 214.984C282.737 221.971 286.405 231.752 286.405 244.328C286.405 260.048 281.077 272.537 270.423 281.794C259.768 291.226 245.533 295.942 227.717 295.942Z" fill="#2E5D6C"/>
</g>
<g filter="url(#filter2_d_3_53)">
<path d="M73.58 77.04C86.4067 77.04 99.2333 78.9467 112.06 82.76C114.487 83.4533 115.7 85.0133 115.7 87.44V123.32C115.7 125.92 114.4 127.22 111.8 127.22H97.24C94.64 127.22 93.4267 125.92 93.6 123.32L94.38 105.9C87.4467 101.74 79.7333 99.66 71.24 99.66C62.7467 99.66 55.9 101.74 50.7 105.9C45.6733 109.887 43.16 115.52 43.16 122.8C43.16 130.08 45.5 136.06 50.18 140.74C54.86 145.247 61.5333 149.147 70.2 152.44C78.8667 155.733 84.6733 157.987 87.62 159.2C90.5667 160.413 94.8133 162.667 100.36 165.96C106.08 169.253 110.24 172.547 112.84 175.84C115.613 178.96 118.127 183.207 120.38 188.58C122.807 193.953 124.02 199.933 124.02 206.52C124.02 223.68 118.56 237.113 107.64 246.82C96.8933 256.353 81.5533 261.12 61.62 261.12C46.8867 261.12 32.3267 258.867 17.94 254.36C15.5133 253.667 14.3 252.107 14.3 249.68V208.34C14.3 205.74 15.6 204.44 18.2 204.44H32.76C35.36 204.44 36.5733 205.74 36.4 208.34L35.36 229.92C37.6133 232 41.34 233.993 46.54 235.9C51.9133 237.633 57.3733 238.5 62.92 238.5C84.4133 238.5 95.16 229.747 95.16 212.24C95.16 203.747 92.3 197.073 86.58 192.22C80.86 187.193 73.4067 183.207 64.22 180.26C55.2067 177.14 48.36 174.453 43.68 172.2C39 169.773 34.2333 166.653 29.38 162.84C19.6733 155.56 14.82 144.38 14.82 129.3C14.82 114.22 20.02 101.74 30.42 91.86C40.82 81.98 55.2067 77.04 73.58 77.04ZM217.047 294.66C182.727 294.66 165.567 279.753 165.567 249.94C165.567 247.34 167.127 246.04 170.247 246.04H184.807C186.887 246.04 188.187 246.387 188.707 247.08C189.401 247.6 189.921 248.9 190.267 250.98C190.961 258.953 193.474 264.587 197.807 267.88C202.141 271.347 208.901 273.08 218.087 273.08C227.274 273.08 234.294 270.827 239.147 266.32C244.174 261.813 246.687 254.1 246.687 243.18C246.687 224.633 237.414 214.927 218.867 214.06C216.961 213.887 214.274 213.8 210.807 213.8H203.267C201.361 213.8 200.061 213.453 199.367 212.76C198.674 212.067 198.327 210.767 198.327 208.86V197.42C198.327 195.513 198.674 194.3 199.367 193.78C200.061 193.087 203.094 192.567 208.467 192.22C213.841 191.873 217.741 191.527 220.167 191.18C235.767 188.233 243.567 179.307 243.567 164.4C243.567 149.32 235.681 141.78 219.907 141.78C204.134 141.78 195.381 149.233 193.647 164.14C193.301 166.047 192.781 167.347 192.087 168.04C191.394 168.733 190.094 169.08 188.187 169.08H174.407C172.501 169.08 171.201 168.733 170.507 168.04C169.814 167.347 169.554 166.047 169.727 164.14C170.421 149.58 175.621 138.573 185.327 131.12C195.207 123.667 207.861 119.94 223.287 119.94C238.714 119.94 250.587 123.493 258.907 130.6C267.401 137.707 271.647 147.847 271.647 161.02C271.647 179.913 260.467 193.433 238.107 201.58C248.334 202.967 257.087 207.213 264.367 214.32C271.647 221.253 275.287 230.96 275.287 243.44C275.287 259.04 270.001 271.433 259.427 280.62C248.854 289.98 234.727 294.66 217.047 294.66Z" fill="white"/>
</g>
<defs>
<filter id="filter0_d_3_53" x="32.41" y="76.6479" width="270.995" height="227.294" filterUnits="userSpaceOnUse" color-interpolation-filters="sRGB">
<feFlood flood-opacity="0" result="BackgroundImageFix"/>
<feColorMatrix in="SourceAlpha" type="matrix" values="0 0 0 0 0 0 0 0 0 0 0 0 0 0 0 0 0 0 127 0" result="hardAlpha"/>
<feOffset dy="4"/>
<feGaussianBlur stdDeviation="2"/>
<feComposite in2="hardAlpha" operator="out"/>
<feColorMatrix type="matrix" values="0 0 0 0 0 0 0 0 0 0 0 0 0 0 0 0 0 0 0.25 0"/>
<feBlend mode="normal" in2="BackgroundImageFix" result="effect1_dropShadow_3_53"/>
<feBlend mode="normal" in="SourceGraphic" in2="effect1_dropShadow_3_53" result="shape"/>
</filter>
<filter id="filter1_d_3_53" x="19.41" y="76.6479" width="270.995" height="227.294" filterUnits="userSpaceOnUse" color-interpolation-filters="sRGB">
<feFlood flood-opacity="0" result="BackgroundImageFix"/>
<feColorMatrix in="SourceAlpha" type="matrix" values="0 0 0 0 0 0 0 0 0 0 0 0 0 0 0 0 0 0 127 0" result="hardAlpha"/>
<feOffset dy="4"/>
<feGaussianBlur stdDeviation="2"/>
<feComposite in2="hardAlpha" operator="out"/>
<feColorMatrix type="matrix" values="0 0 0 0 0 0 0 0 0 0 0 0 0 0 0 0 0 0 0.25 0"/>
<feBlend mode="normal" in2="BackgroundImageFix" result="effect1_dropShadow_3_53"/>
<feBlend mode="normal" in="SourceGraphic" in2="effect1_dropShadow_3_53" result="shape"/>
</filter>
<filter id="filter2_d_3_53" x="7.3" y="76.04" width="268.987" height="225.62" filterUnits="userSpaceOnUse" color-interpolation-filters="sRGB">
<feFlood flood-opacity="0" result="BackgroundImageFix"/>
<feColorMatrix in="SourceAlpha" type="matrix" values="0 0 0 0 0 0 0 0 0 0 0 0 0 0 0 0 0 0 127 0" result="hardAlpha"/>
<feOffset dx="-3" dy="3"/>
<feGaussianBlur stdDeviation="2"/>
<feComposite in2="hardAlpha" operator="out"/>
<feColorMatrix type="matrix" values="0 0 0 0 0 0 0 0 0 0 0 0 0 0 0 0 0 0 0.25 0"/>
<feBlend mode="normal" in2="BackgroundImageFix" result="effect1_dropShadow_3_53"/>
<feBlend mode="normal" in="SourceGraphic" in2="effect1_dropShadow_3_53" result="shape"/>
</filter>
</defs>
</svg>
